{"title":"Daan gyun naam yu aka Don't Go Breaking My Heart (2011)","uid":14159767,"size":5380477068,"categoryP":"video","categoryS":"movies","magnet":"?xt=urn:btih:38ab45b57cc1fdd27bd9565b09cd7f05f227690a&amp;dn=Daan+gyun+naam+yu+aka+Don%27t+Go+Breaking+My+Heart+%282011%29&amp;tr=udp%3A%2F%2Ftracker.leechers-paradise.org%3A6969&amp;tr=udp%3A%2F%2Fzer0day.ch%3A1337&amp;tr=udp%3A%2F%2Fopen.demonii.com%3A1337&amp;tr=udp%3A%2F%2Ftracker.coppersurfer.tk%3A6969&amp;tr=udp%3A%2F%2Fexodus.desync.com%3A6969","seeders":0,"leechers":1,"uploader":null,"files":1,"time":1459706814,"description":"An original twist on an eternal triangle, where secret crush and unrequited love take on altogether newfangled meanings of their own.\r\n\r\nDirector: Johnnie To\r\nWriters: Jevons Au, Ryker Chan\r\nStars: Louis Koo, Yuanyuan Gao, Daniel Wu\r\n\r\nFormat                                   : Matroska\r\nFormat version                           : Version 2\r\nFile size                                : 5.01 GiB\r\nDuration                                 : 1h 54mn\r\nOverall bit rate                         : 6 242 Kbps\r\nEncoded date                             : UTC 2011-06-03 14:36:43\r\nWriting application                      : mkvmerge v3.2.0 ('Beginnings') 编译于 Feb 12 2010 16:46:17\r\nWriting library                          : libebml v0.7.9 + libmatroska v0.8.1\r\n\r\nVideo\r\nID                                       : 1\r\nFormat                                   : AVC\r\nFormat/Info                              : Advanced Video Codec\r\nFormat profile                           :   \r\nFormat settings, CABAC                   : Yes\r\nFormat settings, ReFrames                : 9 frames\r\nCodec ID                                 : V_MPEG4/ISO/AVC\r\nDuration                                 : 1h 54mn\r\nBit rate                                 : 4 088 Kbps\r\nWidth                                    : 1 280 pixels\r\nHeight                                   : 546 pixels\r\nDisplay aspect ratio                     : 2.35:1\r\nFrame rate mode                          : Constant\r\nFrame rate                               : 24.000 fps\r\nColor space                              : YUV\r\nChroma subsampling                       : 4:2:0\r\nBit depth                                : 8 bits\r\nScan type                                : Progressive\r\nBits/(Pixel*Frame)                       : 0.244\r\nStream size                              : 3.19 GiB (64%)\r\nWriting library                          : x264 core 115 r1947+532 361db68\r\nEncoding settings                        : cabac=1 / ref=9 / deblock=1:-3:-3 / analyse=0x3:0x113 / me=umh / subme=10 / psy=1 / fade_compensate=0.00 / psy_rd=1.05:0.10 / mixed_ref=1 / me_range=32 / chroma_me=1 / trellis=2 / 8x8dct=1 / cqm=2 / deadzone=21,11 / fast_pskip=0 / chroma_qp_offset=-2 / threads=12 / sliced_threads=0 / nr=0 / decimate=1 / interlaced=0 / bluray_compat=0 / constrained_intra=0 / fgo=0 / bframes=6 / b_pyramid=2 / b_adapt=2 / b_bias=0 / direct=3 / weightb=1 / open_gop=0 / weightp=2 / keyint=250 / keyint_min=24 / scenecut=40 / intra_refresh=0 / rc_lookahead=40 / rc=2pass / mbtree=1 / bitrate=4088 / ratetol=1.0 / qcomp=0.60 / qpmin=1 / qpmax=63 / qpstep=4 / cplxblur=20.0 / qblur=0.5 / vbv_maxrate=40000 / vbv_bufsize=30000 / nal_hrd=none / ip_ratio=1.40 / aq=1:0.80\r\nLanguage                                 : Chinese\r\nDefault                                  : Yes\r\nForced                                   : Yes\r\n\r\nAudio #1\r\nID                                       : 2\r\nFormat                                   : DTS\r\nFormat/Info                              : Digital Theater Systems\r\nMode                                     : 16\r\nFormat settings, Endianness              : Big\r\nCodec ID                                 : A_DTS\r\nDuration                                 : 1h 54mn\r\nBit rate mode                            : Constant\r\nBit rate                                 : 1 509 Kbps\r\nChannel(s)                               : 6 channels\r\nChannel positions                        : Front: L C R, Side: L R, LFE\r\nSampling rate                            : 48.0 KHz\r\nFrame rate                               : 93.750 fps (512 spf)\r\nBit depth                                : 24 bits\r\nCompression mode                         : Lossy\r\nStream size                              : 1.21 GiB (24%)\r\nTitle                                    : Cantonese DTS-HDMA core 5.1 1509Kbps\r\nLanguage                                 : Chinese\r\nDefault                                  : Yes\r\nForced                                   : Yes\r\n\r\nAudio #2\r\nID                                       : 3\r\nFormat                                   : AC-3\r\nFormat/Info                              : Audio Coding 3\r\nMode extension                           : CM (complete main)\r\nFormat settings, Endianness              : Big\r\nCodec ID                                 : A_AC3\r\nDuration                                 : 1h 54mn\r\nBit rate mode                            : Constant\r\nBit rate                                 : 640 Kbps\r\nChannel(s)                               : 6 channels\r\nChannel positions                        : Front: L C R, Side: L R, LFE\r\nSampling rate                            : 48.0 KHz\r\nFrame rate                               : 31.250 fps (1536 spf)\r\nCompression mode                         : Lossy\r\nStream size                              : 526 MiB (10%)\r\nTitle                                    : Mandarin AC3 5.1 640Kbps\r\nLanguage                                 : Chinese\r\nDefault                                  : No\r\nForced                                   : No","torrent":{"xt":"urn:btih:38ab45b57cc1fdd27bd9565b09cd7f05f227690a","amp;dn":"Daan+gyun+naam+yu+aka+Don%27t+Go+Breaking+My+Heart+%282011%29","amp;tr":["udp%3A%2F%2Ftracker.leechers-paradise.org%3A6969","udp%3A%2F%2Fzer0day.ch%3A1337","udp%3A%2F%2Fopen.demonii.com%3A1337","udp%3A%2F%2Ftracker.coppersurfer.tk%3A6969","udp%3A%2F%2Fexodus.desync.com%3A6969"],"infoHash":"38ab45b57cc1fdd27bd9565b09cd7f05f227690a","infoHashBuffer":{"type":"Buffer","data":[56,171,69,181,124,193,253,210,123,217,86,91,9,205,127,5,242,39,105,10]},"announce":[],"urlList":[]}}